<svg xmlns="http://www.w3.org/2000/svg" viewBox="0 0 100 100" fill="none" stroke="currentColor" stroke-width="8" stroke-linecap="round" stroke-linejoin="round">
  <!-- Eyes -->
  <circle cx="42" cy="42" r="4" fill="currentColor" stroke="none" />
  <circle cx="58" cy="42" r="4" fill="currentColor" stroke="none" />
  
  <!-- Head Arch and Intertwined Tentacle Loops -->
  <!-- Left to Right Continuous Geometric Line -->
  <path d="
    M 30 54
    C 20 54, 14 62, 14 70
    C 14 78, 22 84, 30 84
    C 38 84, 46 76, 50 68
    C 54 76, 62 84, 70 84
    C 78 84, 86 78, 86 70
    C 86 62, 80 54, 70 54
    C 60 54, 54 62, 50 68
    C 46 62, 40 54, 30 54
    Z
  " />
  <!-- Head Dome -->
  <path d="
    M 30 54
    V 40
    C 30 26, 70 26, 70 40
    V 54
  " />
</svg>
